  0
SECTION
  2
HEADER
  9
$ACADVER
  1
AC1014
  9
$HANDSEED
  5
FFFF
  9
$MEASUREMENT
 70
     1
  0
ENDSEC
  0
SECTION
  2
TABLES
  0
TABLE
  2
VPORT
  5
8
330
0
100
AcDbSymbolTable
 70
     4
  0
VPORT
  5
2E
330
8
100
AcDbSymbolTableRecord
100
AcDbViewportTableRecord
  2
*ACTIVE
 70
     0
 10
0.0
 20
0.0
 11
1.0
 21
1.0
 12
210.0
 22
148.5
 13
0.0
 23
0.0
 14
10.0
 24
10.0
 15
10.0
 25
10.0
 16
0.0
 26
0.0
 36
1.0
 17
0.0
 27
0.0
 37
0.0
 40
341.0
 41
1.24
 42
50.0
 43
0.0
 44
0.0
 50
0.0
 51
0.0
 71
     0
 72
   100
 73
     1
 74
     3
 75
     0
 76
     0
 77
     0
 78
     0
  0
ENDTAB
  0
TABLE
  2
LTYPE
  5
5
330
0
100
AcDbSymbolTable
 70
     1
  0
LTYPE
  5
14
330
5
100
AcDbSymbolTableRecord
100
AcDbLinetypeTableRecord
  2
BYBLOCK
 70
     0
  3

 72
    65
 73
     0
 40
0.0
  0
LTYPE
  5
15
330
5
100
AcDbSymbolTableRecord
100
AcDbLinetypeTableRecord
  2
BYLAYER
 70
     0
  3

 72
    65
 73
     0
 40
0.0
  0
LTYPE
  5
16
330
5
100
AcDbSymbolTableRecord
100
AcDbLinetypeTableRecord
  2
CONTINUOUS
 70
     0
  3
Solid line
 72
    65
 73
     0
 40
0.0
  0
ENDTAB
  0
TABLE
  2
LAYER
  5
2
100
AcDbSymbolTable
 70
3
  0
LAYER
  5
50
100
AcDbSymbolTableRecord
100
AcDbLayerTableRecord
  2
0
 70
0
  6
CONTINUOUS
  0
LAYER
  5
51
100
AcDbSymbolTableRecord
100
AcDbLayerTableRecord
  2
silhouette
 70
0
  6
CONTINUOUS
  0
LAYER
  5
52
100
AcDbSymbolTableRecord
100
AcDbLayerTableRecord
  2
face
 70
0
  6
CONTINUOUS
  0
ENDTAB
  0
TABLE
  2
STYLE
  5
3
330
0
100
AcDbSymbolTable
 70
     1
  0
STYLE
  5
11
330
3
100
AcDbSymbolTableRecord
100
AcDbTextStyleTableRecord
  2
STANDARD
 70
     0
 40
0.0
 41
1.0
 50
0.0
 71
     0
 42
2.5
  3
txt
  4

  0
ENDTAB
  0
TABLE
  2
VIEW
  5
6
330
0
100
AcDbSymbolTable
 70
     0
  0
ENDTAB
  0
TABLE
  2
UCS
  5
7
330
0
100
AcDbSymbolTable
 70
     0
  0
ENDTAB
  0
TABLE
  2
APPID
  5
9
330
0
100
AcDbSymbolTable
 70
     2
  0
APPID
  5
12
330
9
100
AcDbSymbolTableRecord
100
AcDbRegAppTableRecord
  2
ACAD
 70
     0
  0
ENDTAB
  0
TABLE
  2
DIMSTYLE
  5
A
330
0
100
AcDbSymbolTable
 70
     1
  0
DIMSTYLE
105
27
330
A
100
AcDbSymbolTableRecord
100
AcDbDimStyleTableRecord
  2
ISO-25
 70
     0
  3

  4

  5

  6

  7

 40
1.0
 41
2.5
 42
0.625
 43
3.75
 44
1.25
 45
0.0
 46
0.0
 47
0.0
 48
0.0
140
2.5
141
2.5
142
0.0
143
0.03937007874016
144
1.0
145
0.0
146
1.0
147
0.625
 71
     0
 72
     0
 73
     0
 74
     0
 75
     0
 76
     0
 77
     1
 78
     8
170
     0
171
     3
172
     1
173
     0
174
     0
175
     0
176
     0
177
     0
178
     0
270
     2
271
     2
272
     2
273
     2
274
     3
340
11
275
     0
280
     0
281
     0
282
     0
283
     0
284
     8
285
     0
286
     0
287
     3
288
     0
  0
ENDTAB
  0
TABLE
  2
BLOCK_RECORD
  5
1
330
0
100
AcDbSymbolTable
 70
     1
  0
BLOCK_RECORD
  5
1F
330
1
100
AcDbSymbolTableRecord
100
AcDbBlockTableRecord
  2
*MODEL_SPACE
  0
BLOCK_RECORD
  5
1B
330
1
100
AcDbSymbolTableRecord
100
AcDbBlockTableRecord
  2
*PAPER_SPACE
  0
ENDTAB
  0
ENDSEC
  0
SECTION
  2
BLOCKS
  0
BLOCK
  5
20
330
1F
100
AcDbEntity
  8
0
100
AcDbBlockBegin
  2
*MODEL_SPACE
 70
     0
 10
0.0
 20
0.0
 30
0.0
  3
*MODEL_SPACE
  1

  0
ENDBLK
  5
21
330
1F
100
AcDbEntity
  8
0
100
AcDbBlockEnd
  0
BLOCK
  5
1C
330
1B
100
AcDbEntity
 67
     1
  8
0
100
AcDbBlockBegin
  2
*PAPER_SPACE
  1

  0
ENDBLK
  5
1D
330
1B
100
AcDbEntity
 67
     1
  8
0
100
AcDbBlockEnd
  0
ENDSEC
  0
SECTION
  2
ENTITIES
  0
SPLINE
  5
100
100
AcDbEntity
  8
silhouette
 62
7
100
AcDbSpline
 70
8
 71
3
 72
8
 73
4
 74
0
 40
0
 40
0
 40
0
 40
0
 40
1
 40
1
 40
1
 40
1
 10
73.062315
 20
354.701458
 30
0.0
 10
73.062315
 20
354.701458
 30
0.0
 10
35.166239
 20
188.356533
 30
0.0
 10
5.316225
 20
39.934385
 30
0.0
  0
SPLINE
  5
101
100
AcDbEntity
  8
silhouette
 62
7
100
AcDbSpline
 70
8
 71
3
 72
8
 73
4
 74
0
 40
0
 40
0
 40
0
 40
0
 40
1
 40
1
 40
1
 40
1
 10
5.316225
 20
39.934385
 30
0.0
 10
127.130880
 20
36.986285
 30
0.0
 10
286.445532
 20
24.395323
 30
0.0
 10
354.688763
 20
5.375797
 30
0.0
  0
SPLINE
  5
102
100
AcDbEntity
  8
silhouette
 62
7
100
AcDbSpline
 70
8
 71
3
 72
8
 73
4
 74
0
 40
0
 40
0
 40
0
 40
0
 40
1
 40
1
 40
1
 40
1
 10
354.688763
 20
5.375797
 30
0.0
 10
339.763756
 20
114.014685
 30
0.0
 10
262.000776
 20
348.625286
 30
0.0
 10
262.000776
 20
348.625286
 30
0.0
  0
SPLINE
  5
103
100
AcDbEntity
  8
silhouette
 62
7
100
AcDbSpline
 70
8
 71
3
 72
8
 73
4
 74
0
 40
0
 40
0
 40
0
 40
0
 40
1
 40
1
 40
1
 40
1
 10
92.579402
 20
170.903518
 30
0.0
 10
88.655611
 20
170.903518
 30
0.0
 10
85.118183
 20
165.125070
 30
0.0
 10
83.616613
 20
156.262656
 30
0.0
  0
SPLINE
  5
104
100
AcDbEntity
  8
silhouette
 62
7
100
AcDbSpline
 70
8
 71
3
 72
8
 73
4
 74
0
 40
0
 40
0
 40
0
 40
0
 40
1
 40
1
 40
1
 40
1
 10
83.616613
 20
156.262656
 30
0.0
 10
82.115044
 20
147.400243
 30
0.0
 10
82.945042
 20
137.199163
 30
0.0
 10
85.719580
 20
130.416165
 30
0.0
  0
SPLINE
  5
105
100
AcDbEntity
  8
silhouette
 62
7
100
AcDbSpline
 70
8
 71
3
 72
8
 73
4
 74
0
 40
0
 40
0
 40
0
 40
0
 40
1
 40
1
 40
1
 40
1
 10
85.719580
 20
130.416165
 30
0.0
 10
88.494119
 20
123.633168
 30
0.0
 10
92.666801
 20
121.604047
 30
0.0
 10
96.291910
 20
125.274979
 30
0.0
  0
SPLINE
  5
106
100
AcDbEntity
  8
silhouette
 62
7
100
AcDbSpline
 70
8
 71
3
 72
8
 73
4
 74
0
 40
0
 40
0
 40
0
 40
0
 40
1
 40
1
 40
1
 40
1
 10
96.291910
 20
125.274979
 30
0.0
 10
99.917020
 20
128.945911
 30
0.0
 10
102.280654
 20
137.593968
 30
0.0
 10
102.280654
 20
147.186576
 30
0.0
  0
SPLINE
  5
107
100
AcDbEntity
  8
silhouette
 62
7
100
AcDbSpline
 70
8
 71
3
 72
8
 73
4
 74
0
 40
0
 40
0
 40
0
 40
0
 40
1
 40
1
 40
1
 40
1
 10
102.280654
 20
147.186576
 30
0.0
 10
102.280654
 20
153.476700
 30
0.0
 10
101.258561
 20
159.509197
 30
0.0
 10
99.439223
 20
163.956986
 30
0.0
  0
SPLINE
  5
108
100
AcDbEntity
  8
silhouette
 62
7
100
AcDbSpline
 70
8
 71
3
 72
8
 73
4
 74
0
 40
0
 40
0
 40
0
 40
0
 40
1
 40
1
 40
1
 40
1
 10
99.439223
 20
163.956986
 30
0.0
 10
97.619885
 20
168.404776
 30
0.0
 10
95.152334
 20
170.903518
 30
0.0
 10
92.579402
 20
170.903518
 30
0.0
  0
LWPOLYLINE
  5
109
100
AcDbEntity
  8
silhouette
 62
7
100
AcDbPolyline
 90
4
 70
0
 10
262.000776
 20
348.625286
 30
0.0
 10
215.767382
 20
230.528123
 30
0.0
 10
105.820613
 20
231.648728
 30
0.0
 10
73.062315
 20
354.701458
 30
0.0
  0
SPLINE
  5
10a
100
AcDbEntity
  8
silhouette
 62
7
100
AcDbSpline
 70
8
 71
3
 72
8
 73
4
 74
0
 40
0
 40
0
 40
0
 40
0
 40
1
 40
1
 40
1
 40
1
 10
200.039440
 20
169.373394
 30
0.0
 10
196.115650
 20
169.373394
 30
0.0
 10
192.578221
 20
163.967749
 30
0.0
 10
191.076651
 20
155.677104
 30
0.0
  0
SPLINE
  5
10b
100
AcDbEntity
  8
silhouette
 62
7
100
AcDbSpline
 70
8
 71
3
 72
8
 73
4
 74
0
 40
0
 40
0
 40
0
 40
0
 40
1
 40
1
 40
1
 40
1
 10
191.076651
 20
155.677104
 30
0.0
 10
189.575082
 20
147.386458
 30
0.0
 10
190.405080
 20
137.843512
 30
0.0
 10
193.179619
 20
131.498126
 30
0.0
  0
SPLINE
  5
10c
100
AcDbEntity
  8
silhouette
 62
7
100
AcDbSpline
 70
8
 71
3
 72
8
 73
4
 74
0
 40
0
 40
0
 40
0
 40
0
 40
1
 40
1
 40
1
 40
1
 10
193.179619
 20
131.498126
 30
0.0
 10
195.954157
 20
125.152741
 30
0.0
 10
200.126839
 20
123.254531
 30
0.0
 10
203.751949
 20
126.688629
 30
0.0
  0
SPLINE
  5
10d
100
AcDbEntity
  8
silhouette
 62
7
100
AcDbSpline
 70
8
 71
3
 72
8
 73
4
 74
0
 40
0
 40
0
 40
0
 40
0
 40
1
 40
1
 40
1
 40
1
 10
203.751949
 20
126.688629
 30
0.0
 10
207.377058
 20
130.122727
 30
0.0
 10
209.740692
 20
138.212846
 30
0.0
 10
209.740692
 20
147.186576
 30
0.0
  0
SPLINE
  5
10e
100
AcDbEntity
  8
silhouette
 62
7
100
AcDbSpline
 70
8
 71
3
 72
8
 73
4
 74
0
 40
0
 40
0
 40
0
 40
0
 40
1
 40
1
 40
1
 40
1
 10
209.740692
 20
147.186576
 30
0.0
 10
209.740692
 20
153.070886
 30
0.0
 10
208.718599
 20
158.714190
 30
0.0
 10
206.899261
 20
162.875025
 30
0.0
  0
SPLINE
  5
10f
100
AcDbEntity
  8
silhouette
 62
7
100
AcDbSpline
 70
8
 71
3
 72
8
 73
4
 74
0
 40
0
 40
0
 40
0
 40
0
 40
1
 40
1
 40
1
 40
1
 10
206.899261
 20
162.875025
 30
0.0
 10
205.079924
 20
167.035861
 30
0.0
 10
202.612372
 20
169.373394
 30
0.0
 10
200.039440
 20
169.373394
 30
0.0
  0
LWPOLYLINE
  5
110
100
AcDbEntity
  8
silhouette
 62
7
100
AcDbPolyline
 90
1
 70
1
 10
92.579402
 20
170.903518
 30
0.0
  0
SPLINE
  5
111
100
AcDbEntity
  8
silhouette
 62
7
100
AcDbSpline
 70
8
 71
3
 72
8
 73
4
 74
0
 40
0
 40
0
 40
0
 40
0
 40
1
 40
1
 40
1
 40
1
 10
145.563283
 20
130.354792
 30
0.0
 10
140.880463
 20
130.354667
 30
0.0
 10
136.866063
 20
122.176725
 30
0.0
 10
136.021296
 20
110.916316
 30
0.0
  0
SPLINE
  5
112
100
AcDbEntity
  8
silhouette
 62
7
100
AcDbSpline
 70
8
 71
3
 72
8
 73
4
 74
0
 40
0
 40
0
 40
0
 40
0
 40
1
 40
1
 40
1
 40
1
 10
136.021296
 20
110.916316
 30
0.0
 10
131.469649
 20
108.398497
 30
0.0
 10
127.732812
 20
98.837414
 30
0.0
 10
126.997860
 20
87.828917
 30
0.0
  0
SPLINE
  5
113
100
AcDbEntity
  8
silhouette
 62
7
100
AcDbSpline
 70
8
 71
3
 72
8
 73
4
 74
0
 40
0
 40
0
 40
0
 40
0
 40
1
 40
1
 40
1
 40
1
 10
126.997860
 20
87.828917
 30
0.0
 10
126.577972
 20
81.538746
 30
0.0
 10
127.197389
 20
75.506171
 30
0.0
 10
128.719842
 20
71.058309
 30
0.0
  0
SPLINE
  5
114
100
AcDbEntity
  8
silhouette
 62
7
100
AcDbSpline
 70
8
 71
3
 72
8
 73
4
 74
0
 40
0
 40
0
 40
0
 40
0
 40
1
 40
1
 40
1
 40
1
 10
128.719842
 20
71.058309
 30
0.0
 10
130.242296
 20
66.610448
 30
0.0
 10
132.543074
 20
64.111650
 30
0.0
 10
135.116024
 20
64.111631
 30
0.0
  0
SPLINE
  5
115
100
AcDbEntity
  8
silhouette
 62
7
100
AcDbSpline
 70
8
 71
3
 72
8
 73
4
 74
0
 40
0
 40
0
 40
0
 40
0
 40
1
 40
1
 40
1
 40
1
 10
135.116024
 20
64.111631
 30
0.0
 10
139.701846
 20
64.112903
 30
0.0
 10
144.184908
 20
71.963911
 30
0.0
 10
145.863583
 20
82.933405
 30
0.0
  0
SPLINE
  5
116
100
AcDbEntity
  8
silhouette
 62
7
100
AcDbSpline
 70
8
 71
3
 72
8
 73
4
 74
0
 40
0
 40
0
 40
0
 40
0
 40
1
 40
1
 40
1
 40
1
 10
145.863583
 20
82.933405
 30
0.0
 10
145.931971
 20
82.938962
 30
0.0
 10
146.000332
 20
82.946287
 30
0.0
 10
146.068656
 20
82.955380
 30
0.0
  0
SPLINE
  5
117
100
AcDbEntity
  8
silhouette
 62
7
100
AcDbSpline
 70
8
 71
3
 72
8
 73
4
 74
0
 40
0
 40
0
 40
0
 40
0
 40
1
 40
1
 40
1
 40
1
 10
146.068656
 20
82.955380
 30
0.0
 10
149.115404
 20
72.188290
 30
0.0
 10
154.476569
 20
64.559339
 30
0.0
 10
158.995903
 20
64.559876
 30
0.0
  0
SPLINE
  5
118
100
AcDbEntity
  8
silhouette
 62
7
100
AcDbSpline
 70
8
 71
3
 72
8
 73
4
 74
0
 40
0
 40
0
 40
0
 40
0
 40
1
 40
1
 40
1
 40
1
 10
158.995903
 20
64.559876
 30
0.0
 10
161.568841
 20
64.559914
 30
0.0
 10
163.564652
 20
67.058719
 30
0.0
 10
164.544273
 20
71.506577
 30
0.0
  0
SPLINE
  5
119
100
AcDbEntity
  8
silhouette
 62
7
100
AcDbSpline
 70
8
 71
3
 72
8
 73
4
 74
0
 40
0
 40
0
 40
0
 40
0
 40
1
 40
1
 40
1
 40
1
 10
164.544273
 20
71.506577
 30
0.0
 10
165.523895
 20
75.954435
 30
0.0
 10
165.407082
 20
81.986997
 30
0.0
 10
164.219532
 20
88.277154
 30
0.0
  0
SPLINE
  5
11a
100
AcDbEntity
  8
silhouette
 62
7
100
AcDbSpline
 70
8
 71
3
 72
8
 73
4
 74
0
 40
0
 40
0
 40
0
 40
0
 40
1
 40
1
 40
1
 40
1
 10
164.219532
 20
88.277154
 30
0.0
 10
162.577484
 20
96.973597
 30
0.0
 10
159.120340
 20
104.972255
 30
0.0
 10
155.210750
 20
109.120418
 30
0.0
  0
SPLINE
  5
11b
100
AcDbEntity
  8
silhouette
 62
7
100
AcDbSpline
 70
8
 71
3
 72
8
 73
4
 74
0
 40
0
 40
0
 40
0
 40
0
 40
1
 40
1
 40
1
 40
1
 10
155.210750
 20
109.120418
 30
0.0
 10
154.691087
 20
121.190723
 30
0.0
 10
150.527832
 20
130.354177
 30
0.0
 10
145.563283
 20
130.354792
 30
0.0
  0
LWPOLYLINE
  5
11c
100
AcDbEntity
  8
silhouette
 62
7
100
AcDbPolyline
 90
1
 70
1
 10
200.039440
 20
169.373394
 30
0.0
  0
LWPOLYLINE
  5
11d
100
AcDbEntity
  8
silhouette
 62
7
100
AcDbPolyline
 90
1
 70
1
 10
145.563283
 20
130.354792
 30
0.0
  0
LWPOLYLINE
  5
11e
100
AcDbEntity
  8
silhouette
 62
7
100
AcDbPolyline
 90
5
 70
1
 10
223.800901
 20
112.567470
 30
0.0
 10
176.788204
 20
97.265716
 30
0.0
 10
180.067991
 20
87.184660
 30
0.0
 10
227.082151
 20
102.486414
 30
0.0
 10
223.800901
 20
112.567470
 30
0.0
  0
LWPOLYLINE
  5
11f
100
AcDbEntity
  8
silhouette
 62
7
100
AcDbPolyline
 90
5
 70
1
 10
180.598264
 20
81.742765
 30
0.0
 10
177.823849
 20
71.510831
 30
0.0
 10
240.744750
 20
54.454189
 30
0.0
 10
243.519157
 20
64.686123
 30
0.0
 10
180.598264
 20
81.742765
 30
0.0
  0
LWPOLYLINE
  5
120
100
AcDbEntity
  8
silhouette
 62
7
100
AcDbPolyline
 90
5
 70
1
 10
83.003057
 20
106.132411
 30
0.0
 10
80.701787
 20
95.783289
 30
0.0
 10
113.099738
 20
88.580657
 30
0.0
 10
115.401008
 20
98.929779
 30
0.0
 10
83.003057
 20
106.132411
 30
0.0
  0
LWPOLYLINE
  5
121
100
AcDbEntity
  8
silhouette
 62
7
100
AcDbPolyline
 90
5
 70
1
 10
112.721805
 20
83.696867
 30
0.0
 10
67.456668
 20
76.942473
 30
0.0
 10
69.021123
 20
66.457121
 30
0.0
 10
114.286260
 20
73.211515
 30
0.0
 10
112.721805
 20
83.696867
 30
0.0
  0
ENDSEC
  0
SECTION
  2
OBJECTS
  0
DICTIONARY
  5
C
330
0
100
AcDbDictionary
  3
ACAD_GROUP
350
D
  3
ACAD_MLINESTYLE
350
17
  0
DICTIONARY
  5
D
330
C
100
AcDbDictionary
  0
DICTIONARY
  5
1A
330
C
100
AcDbDictionary
  0
DICTIONARY
  5
17
330
C
100
AcDbDictionary
  3
STANDARD
350
18
  0
DICTIONARY
  5
19
330
C
100
AcDbDictionary
  0
ENDSEC
  0
EOF
